<svg xmlns="http://www.w3.org/2000/svg" viewBox="0 0 800 1000" width="800" height="1000">
  <defs><radialGradient id="bgb2" cx="50%" cy="36%" r="75%">
      <stop offset="0" stop-color="#6B4428"/><stop offset=".55" stop-color="#2A1F30"/><stop offset="1" stop-color="#1B1420"/></radialGradient>
    <radialGradient id="spotb2" cx="50%" cy="0%" r="60%"><stop offset="0" stop-color="#fff" stop-opacity=".16"/><stop offset="1" stop-color="#fff" stop-opacity="0"/></radialGradient>
    <linearGradient id="fadeb2" x1="0" y1="0" x2="0" y2="1"><stop offset="0" stop-color="#fff" stop-opacity=".22"/><stop offset=".6" stop-color="#fff" stop-opacity="0"/></linearGradient>
    <mask id="mfadeb2"><rect x="0" y="860" width="800" height="140" fill="url(#fadeb2)"/></mask>
    <linearGradient id="liqgb2330" x1="0" y1="0" x2="1" y2="0">
      <stop offset="0" stop-color="#D9661F"/><stop offset=".45" stop-color="#FFB347"/><stop offset="1" stop-color="#D9661F"/></linearGradient>
    <linearGradient id="capgb2330" x1="0" y1="0" x2="1" y2="0">
      <stop offset="0" stop-color="#111"/><stop offset=".35" stop-color="#3A3A3E"/><stop offset=".55" stop-color="#5A5A60"/><stop offset="1" stop-color="#111"/></linearGradient>
    <clipPath id="clipgb2330"><path d="M276 556 H384 Q438 556 438 631.6 V826 Q438 880 384 880 H276 Q222 880 222 826 V631.6 Q222 556 276 556 Z"/></clipPath></defs>
  <rect width="800" height="1000" fill="url(#bgb2)"/>
  <rect width="800" height="1000" fill="url(#spotb2)"/>
  <rect y="860" width="800" height="140" fill="#140E18" opacity=".55"/>
  <g>
    <rect x="440" y="360" width="250" height="520" fill="#1F1F24"/>
    <rect x="690" y="370" width="36" height="510" fill="#0F0F12"/>
    <path d="M440 360 L476 350 H726 L690 360 Z" fill="#2C2C33" opacity=".9"/>
    <rect x="456" y="376" width="218" height="488" fill="none" stroke="#E08A2E" stroke-width="1.5" opacity=".7"/>
    <g text-anchor="middle" fill="#F7B45C">
      <text x="565" y="578.4" font-family="'Jost','Futura','Century Gothic','Segoe UI',sans-serif" font-size="17" letter-spacing="6">ARMAF</text>
      <text x="565" y="624.4" font-family="'Bodoni Moda','Bodoni 72',Didot,'Playfair Display',Georgia,serif" font-style="italic" font-size="36">Mandarin Sky</text>
      <text x="565" y="836" font-family="'Jost','Futura','Century Gothic','Segoe UI',sans-serif" font-size="13" letter-spacing="4" opacity=".8">MANDARIN SKY</text>
    </g></g>
    <ellipse cx="330" cy="884" rx="133.92" ry="12.6" fill="#000" opacity=".45"/>
    <rect x="303" y="537.8" width="54" height="20.2" fill="#d9c7a8" opacity=".85"/>
    <rect x="276" y="458.79999999999995" width="108" height="81" rx="12.6" fill="url(#capgb2330)"/>
      <rect x="281.4" y="462.4" width="12.959999999999999" height="73.8" rx="2.7" fill="#fff" opacity=".22"/>
    <path d="M276 556 H384 Q438 556 438 631.6 V826 Q438 880 384 880 H276 Q222 880 222 826 V631.6 Q222 556 276 556 Z" fill="rgba(255,255,255,.07)" stroke="rgba(255,255,255,.35)" stroke-width="1.8"/>
    <g clip-path="url(#clipgb2330)">
      <rect x="202" y="588.4" width="256" height="301.6" fill="url(#liqgb2330)" opacity="0.92"/>
      <rect x="202" y="588.4" width="256" height="2.7" fill="#fff" opacity=".35"/>
      <rect x="241.44" y="566.8" width="15.120000000000001" height="302.4" rx="7.5600000000000005" fill="#fff" opacity=".28"/>
      <rect x="394.8" y="574" width="6.4799999999999995" height="288" fill="#fff" opacity=".14"/>
    </g>
    
    
    <g font-family="'Jost','Futura','Century Gothic','Segoe UI',sans-serif" text-anchor="middle">
      <text x="330" y="705.04" font-size="12.6" letter-spacing="4.5" fill="#2B1405" opacity=".9">ARMAF</text>
      <text x="330" y="758.5" font-family="'Bodoni Moda','Bodoni 72',Didot,'Playfair Display',Georgia,serif" font-style="italic" font-size="39.6" fill="#2B1405">Odyssey</text>
      <text x="330" y="798.0999999999999" font-size="11.700000000000001" letter-spacing="3.6" fill="#2B1405" opacity=".75">MANDARIN SKY</text>
    </g>
</svg>