<svg xmlns="http://www.w3.org/2000/svg" viewBox="0 0 800 1000" width="800" height="1000">
  <defs><radialGradient id="bga4" cx="50%" cy="36%" r="75%">
      <stop offset="0" stop-color="#2F3566"/><stop offset=".55" stop-color="#2A1F30"/><stop offset="1" stop-color="#1B1420"/></radialGradient>
    <radialGradient id="spota4" cx="50%" cy="0%" r="60%"><stop offset="0" stop-color="#fff" stop-opacity=".16"/><stop offset="1" stop-color="#fff" stop-opacity="0"/></radialGradient>
    <linearGradient id="fadea4" x1="0" y1="0" x2="0" y2="1"><stop offset="0" stop-color="#fff" stop-opacity=".22"/><stop offset=".6" stop-color="#fff" stop-opacity="0"/></linearGradient>
    <mask id="mfadea4"><rect x="0" y="860" width="800" height="140" fill="url(#fadea4)"/></mask>
    <linearGradient id="liqga4400" x1="0" y1="0" x2="1" y2="0">
      <stop offset="0" stop-color="#0E1440"/><stop offset=".45" stop-color="#2B3A8C"/><stop offset="1" stop-color="#0E1440"/></linearGradient>
    <linearGradient id="capga4400" x1="0" y1="0" x2="1" y2="0">
      <stop offset="0" stop-color="#8B6A2E"/><stop offset=".35" stop-color="#E3C27E"/><stop offset=".55" stop-color="#F7E2AE"/><stop offset="1" stop-color="#8B6A2E"/></linearGradient>
    <clipPath id="clipga4400"><path d="M250 860 L316 440 Q400 426 484 440 L550 800 Q556 860 490 860 Z"/></clipPath></defs>
  <rect width="800" height="1000" fill="url(#bga4)"/>
  <rect width="800" height="1000" fill="url(#spota4)"/>
  <rect y="860" width="800" height="140" fill="#140E18" opacity=".55"/>
  
    <ellipse cx="400" cy="864" rx="186" ry="14" fill="#000" opacity=".45"/>
    <rect x="380" y="420" width="40" height="22" fill="#d9c7a8" opacity=".85"/>
    <rect x="371" y="352" width="58" height="70" rx="6" fill="url(#capga4400)"/>
      <rect x="377" y="356" width="6.96" height="62" rx="3" fill="#fff" opacity=".22"/>
    <path d="M250 860 L316 440 Q400 426 484 440 L550 800 Q556 860 490 860 Z" fill="#16194A" stroke="rgba(255,255,255,.35)" stroke-width="2"/>
    <g clip-path="url(#clipga4400)">
      <rect x="230" y="440" width="340" height="430" fill="url(#liqga4400)" opacity="0.95"/>
      <rect x="230" y="440" width="340" height="3" fill="#fff" opacity=".35"/>
      <rect x="277" y="452" width="21.000000000000004" height="396" rx="10.500000000000002" fill="#fff" opacity=".28"/>
      <rect x="490" y="460" width="9" height="380" fill="#fff" opacity=".14"/>
    </g>
    
    
    <g font-family="'Jost','Futura','Century Gothic','Segoe UI',sans-serif" text-anchor="middle">
      <text x="400" y="633.2" font-size="11" letter-spacing="5" fill="#E8CF95" opacity=".9">CAROLINA HERRERA</text>
      <text x="400" y="687.2" font-family="'Bodoni Moda','Bodoni 72',Didot,'Playfair Display',Georgia,serif" font-style="italic" font-size="40" fill="#E8CF95">Good Girl</text>
      <text x="400" y="727.2" font-size="13" letter-spacing="4" fill="#E8CF95" opacity=".75">EAU DE PARFUM</text>
    </g><g mask="url(#mfadea4)" opacity=".55"><g transform="translate(0 1720) scale(1 -1)">
    <ellipse cx="400" cy="864" rx="186" ry="14" fill="#000" opacity=".45"/>
    <rect x="380" y="420" width="40" height="22" fill="#d9c7a8" opacity=".85"/>
    <rect x="371" y="352" width="58" height="70" rx="6" fill="url(#capga4400)"/>
      <rect x="377" y="356" width="6.96" height="62" rx="3" fill="#fff" opacity=".22"/>
    <path d="M250 860 L316 440 Q400 426 484 440 L550 800 Q556 860 490 860 Z" fill="#16194A" stroke="rgba(255,255,255,.35)" stroke-width="2"/>
    <g clip-path="url(#clipga4400)">
      <rect x="230" y="440" width="340" height="430" fill="url(#liqga4400)" opacity="0.95"/>
      <rect x="230" y="440" width="340" height="3" fill="#fff" opacity=".35"/>
      <rect x="277" y="452" width="21.000000000000004" height="396" rx="10.500000000000002" fill="#fff" opacity=".28"/>
      <rect x="490" y="460" width="9" height="380" fill="#fff" opacity=".14"/>
    </g>
    
    
    <g font-family="'Jost','Futura','Century Gothic','Segoe UI',sans-serif" text-anchor="middle">
      <text x="400" y="633.2" font-size="11" letter-spacing="5" fill="#E8CF95" opacity=".9">CAROLINA HERRERA</text>
      <text x="400" y="687.2" font-family="'Bodoni Moda','Bodoni 72',Didot,'Playfair Display',Georgia,serif" font-style="italic" font-size="40" fill="#E8CF95">Good Girl</text>
      <text x="400" y="727.2" font-size="13" letter-spacing="4" fill="#E8CF95" opacity=".75">EAU DE PARFUM</text>
    </g></g></g>
</svg>