<svg xmlns="http://www.w3.org/2000/svg" viewBox="0 0 800 1000" width="800" height="1000">
  <defs><radialGradient id="bga5" cx="50%" cy="36%" r="75%">
      <stop offset="0" stop-color="#2E4460"/><stop offset=".55" stop-color="#2A1F30"/><stop offset="1" stop-color="#1B1420"/></radialGradient>
    <radialGradient id="spota5" cx="50%" cy="0%" r="60%"><stop offset="0" stop-color="#fff" stop-opacity=".16"/><stop offset="1" stop-color="#fff" stop-opacity="0"/></radialGradient>
    <linearGradient id="fadea5" x1="0" y1="0" x2="0" y2="1"><stop offset="0" stop-color="#fff" stop-opacity=".22"/><stop offset=".6" stop-color="#fff" stop-opacity="0"/></linearGradient>
    <mask id="mfadea5"><rect x="0" y="860" width="800" height="140" fill="url(#fadea5)"/></mask>
    <linearGradient id="liqga5400" x1="0" y1="0" x2="1" y2="0">
      <stop offset="0" stop-color="#3D5E86"/><stop offset=".45" stop-color="#8FB3D9"/><stop offset="1" stop-color="#3D5E86"/></linearGradient>
    <linearGradient id="capga5400" x1="0" y1="0" x2="1" y2="0">
      <stop offset="0" stop-color="#6E7680"/><stop offset=".35" stop-color="#D8DDE3"/><stop offset=".55" stop-color="#F3F5F7"/><stop offset="1" stop-color="#6E7680"/></linearGradient>
    <clipPath id="clipga5400"><path d="M361 530 H439 Q455 530 455 546 V844 Q455 860 439 860 H361 Q345 860 345 844 V546 Q345 530 361 530 Z"/></clipPath></defs>
  <rect width="800" height="1000" fill="url(#bga5)"/>
  <rect width="800" height="1000" fill="url(#spota5)"/>
  <rect y="860" width="800" height="140" fill="#140E18" opacity=".55"/>
  
    <ellipse cx="400" cy="864" rx="68.2" ry="14" fill="#000" opacity=".45"/>
    <rect x="383" y="510" width="34" height="22" fill="#d9c7a8" opacity=".85"/>
    <rect x="371" y="466.5" width="58" height="45.5" rx="3" fill="url(#capga5400)"/>
      <rect x="387.24" y="442" width="25.52" height="28" rx="3" fill="url(#capga5400)"/>
    <path d="M361 530 H439 Q455 530 455 546 V844 Q455 860 439 860 H361 Q345 860 345 844 V546 Q345 530 361 530 Z" fill="rgba(255,255,255,.07)" stroke="rgba(255,255,255,.35)" stroke-width="2"/>
    <g clip-path="url(#clipga5400)">
      <rect x="325" y="596" width="150" height="274" fill="url(#liqga5400)" opacity="0.92"/>
      <rect x="325" y="596" width="150" height="3" fill="#fff" opacity=".35"/>
      <rect x="354.9" y="542" width="7.700000000000001" height="306" rx="3.8500000000000005" fill="#fff" opacity=".28"/>
      <rect x="433" y="550" width="3.3" height="290" fill="#fff" opacity=".14"/>
    </g>
    
    
    <g font-family="'Jost','Futura','Century Gothic','Segoe UI',sans-serif" text-anchor="middle">
      <text x="400" y="681.8" font-size="12" letter-spacing="5" fill="#EAF1F8" opacity=".9">DIOR</text>
      <text x="400" y="716.9" font-family="'Bodoni Moda','Bodoni 72',Didot,'Playfair Display',Georgia,serif" font-style="italic" font-size="26" fill="#EAF1F8">Sauvage</text>
      <text x="400" y="742.9" font-size="13" letter-spacing="4" fill="#EAF1F8" opacity=".75">DECANT · EDT</text>
    </g><g mask="url(#mfadea5)" opacity=".55"><g transform="translate(0 1720) scale(1 -1)">
    <ellipse cx="400" cy="864" rx="68.2" ry="14" fill="#000" opacity=".45"/>
    <rect x="383" y="510" width="34" height="22" fill="#d9c7a8" opacity=".85"/>
    <rect x="371" y="466.5" width="58" height="45.5" rx="3" fill="url(#capga5400)"/>
      <rect x="387.24" y="442" width="25.52" height="28" rx="3" fill="url(#capga5400)"/>
    <path d="M361 530 H439 Q455 530 455 546 V844 Q455 860 439 860 H361 Q345 860 345 844 V546 Q345 530 361 530 Z" fill="rgba(255,255,255,.07)" stroke="rgba(255,255,255,.35)" stroke-width="2"/>
    <g clip-path="url(#clipga5400)">
      <rect x="325" y="596" width="150" height="274" fill="url(#liqga5400)" opacity="0.92"/>
      <rect x="325" y="596" width="150" height="3" fill="#fff" opacity=".35"/>
      <rect x="354.9" y="542" width="7.700000000000001" height="306" rx="3.8500000000000005" fill="#fff" opacity=".28"/>
      <rect x="433" y="550" width="3.3" height="290" fill="#fff" opacity=".14"/>
    </g>
    
    
    <g font-family="'Jost','Futura','Century Gothic','Segoe UI',sans-serif" text-anchor="middle">
      <text x="400" y="681.8" font-size="12" letter-spacing="5" fill="#EAF1F8" opacity=".9">DIOR</text>
      <text x="400" y="716.9" font-family="'Bodoni Moda','Bodoni 72',Didot,'Playfair Display',Georgia,serif" font-style="italic" font-size="26" fill="#EAF1F8">Sauvage</text>
      <text x="400" y="742.9" font-size="13" letter-spacing="4" fill="#EAF1F8" opacity=".75">DECANT · EDT</text>
    </g></g></g>
</svg>